<svg xmlns="http://www.w3.org/2000/svg" xmlns:xlink="http://www.w3.org/1999/xlink" width="500" height="500" version="1.1" viewBox="0 0 500 500"><title>logo</title><desc>Created with Sketch.</desc><defs><rect id="path-1" width="500" height="500" x="0" y="0"/><linearGradient id="linearGradient-3" x1="50.004%" x2="49.951%" y1="50%" y2="50%"><stop offset="0%" stop-color="#F7BD40"/><stop offset="100%" stop-color="#DD9700"/></linearGradient></defs><g id="logo" fill="none" fill-rule="evenodd" stroke="none" stroke-width="1"><mask id="mask-2" fill="#fff"><use xlink:href="#path-1"/></mask><use id="Rectangle-4" fill="#FFF" fill-rule="nonzero" xlink:href="#path-1"/><circle id="Oval-2" cx="226.5" cy="247.5" r="208.5" fill="#94AFC0" fill-rule="nonzero" mask="url(#mask-2)"/><path id="Rectangle" fill="#2289B6" fill-rule="nonzero" d="M-79,-3 L351,-3 L351,427 C351,467.316787 318.316787,500 278,500 L-79,500 C-119.316787,500 -152,467.316787 -152,427 L-152,70 C-152,29.6832133 -119.316787,-3 -79,-3 Z" mask="url(#mask-2)"/><path id="Rectangle" fill="#FFF" fill-rule="nonzero" d="M-84,-6 L327,-6 L327,405 C327,445.316787 294.316787,478 254,478 L-84,478 C-124.316787,478 -157,445.316787 -157,405 L-157,67 C-157,26.6832133 -124.316787,-6 -84,-6 Z" mask="url(#mask-2)"/><g id="Group" fill="#DCE4E8" fill-rule="nonzero" mask="url(#mask-2)"><g id="Rectangle-2" transform="translate(47.000000, 223.000000)"><rect width="234" height="18" x="0" y="0" rx="9"/><rect width="234" height="18" x="0" y="76.5" rx="9"/><rect width="234" height="18" x="0" y="153" rx="9"/></g></g><path id="Shape" fill="#E0160A" fill-rule="nonzero" d="M226.084382,66.6114783 C231.694533,53.3022609 244.510589,44.0027826 259.417245,44.0027826 C279.497585,44.0027826 293.959433,61.1965217 295.77759,81.6876522 C295.77759,81.6876522 296.758949,86.7742609 294.598846,95.9318261 C291.657547,108.403478 284.74355,119.483826 275.422024,127.940174 L226.084382,172 L177.577976,127.937391 C168.25645,119.483826 161.342453,108.400696 158.401154,95.9290435 C156.241051,86.7714783 157.22241,81.6848696 157.22241,81.6848696 C159.040567,61.1937391 173.502415,44 193.582755,44 C208.492191,44 220.47423,53.3022609 226.084382,66.6114783 Z" mask="url(#mask-2)"/><path id="Rectangle-3" fill="url(#linearGradient-3)" fill-rule="nonzero" d="M65,0 L126,0 L126,137.191113 C126,139.400252 124.209139,141.191113 122,141.191113 C121.318338,141.191113 120.647985,141.01691 120.052567,140.685037 L95.5,127 L70.947433,140.685037 C69.0177921,141.760575 66.5816136,141.068187 65.506076,139.138546 C65.1742035,138.543128 65,137.872775 65,137.191113 L65,0 Z" mask="url(#mask-2)"/></g></svg>